# xmcd
#
# Track frame offsets:
#	150
#	15790
#	24823
#	36286
#	47860
#	58923
#	71598
#	82695
#	97036
#	109921
#	121824
#	131766
#	147059
#	156650
#	169243
#	178171
#	190907
#	201257
#	213151
#	223713
#
# Disc length: 3198
#
# Revision: 1
# Processed by: cddbd v1.5.1PL0 Copyright (c) Steve Scherf et al.
# Submitted via: CDex 1.50
# Normalized: r0:TDELIM( - )
#
DISCID=1f0c7c14
DTITLE=Various Artist - This Is Country
DYEAR=1999
DGENRE=Country
TTITLE0=Billie Joe Spears - Blanket on the ground
TTITLE1=Frankie Laine - Raw hide
TTITLE2=Barbara Fairchild - Cheatin' is
TTITLE3=Willie Nelson - Is there something on your mind
TTITLE4=Lynn Anderson - Heaven's just a sin away
TTITLE5=Kenny Rogers - Reuben James
TTITLE6=Slim Whitman - Singing the blues
TTITLE7=Anne Murray - Both sides now
TTITLE8=Billie Joe Spears - '57 Chevrolet
TTITLE9=Patsy Cline - Today, tomorrow and forever
TTITLE10=Slim Whitman - Cara mia
TTITLE11=Ed Bruce - Texas when I die
TTITLE12=Merle Travis - Sixteen tons
TTITLE13=Lynn Anderson - Stand by your man
TTITLE14=Willie Nelson - The ghost
TTITLE15=Billie Joe Spears - Dallas
TTITLE16=Frankie Laine - I believe
TTITLE17=Kenny Rogers - Elvira
TTITLE18=Patsy Cline - Three cigarettes in an ashtray
TTITLE19=Slim Whitman - The three bells
EXTD=YEAR: 1999
EXTT0=
EXTT1=
EXTT2=
EXTT3=
EXTT4=
EXTT5=
EXTT6=
EXTT7=
EXTT8=
EXTT9=
EXTT10=
EXTT11=
EXTT12=
EXTT13=
EXTT14=
EXTT15=
EXTT16=
EXTT17=
EXTT18=
EXTT19=
PLAYORDER=
